/* XPM */
static char * close_active_xpm[] = {
"24 24 37 1",
" 	c None",
".	c #002B36",
"+	c #766A72",
"@	c #F0868C",
"#	c #F3757B",
"$	c #2F4852",
"%	c #F2767B",
"&	c #F37076",
"*	c #2E4852",
"=	c #F27076",
"-	c #F4787E",
";	c #F2767D",
">	c #2F444E",
",	c #FFFCFC",
"'	c #FAC7C9",
")	c #F37177",
"!	c #FAC5C7",
"~	c #FFFEFE",
"{	c #F0868B",
"]	c #F9B8BB",
"^	c #FFFFFF",
"/	c #FAC9CB",
"(	c #F9BDC0",
"_	c #F2757B",
":	c #F9BBBE",
"<	c #FABFC1",
"[	c #F37278",
"}	c #FBCACC",
"|	c #FBCFD1",
"1	c #FAC7CA",
"2	c #FAC8CA",
"3	c #FEF3F3",
"4	c #F9B4B7",
"5	c #766B73",
"6	c #F2777C",
"7	c #2E4952",
"8	c #F0878C",
"........................",
"........................",
"........................",
"........................",
"........................",
".........+@##@+.........",
".......$%&&&&&&%*.......",
"......$=&&&&&&&&=*......",
"......%&&-&&&&-&&;......",
".....>&&&,'))!~&&&+.....",
".....{&&&]^//^(&&&@.....",
"....._&&&&:^^<&&&&%.....",
".....%&&&[}^^|[&&&;.....",
".....@&&&1^]]^2&&&@.....",
".....>&&&34&&43&&&5.....",
"......%&&&&&&&&&&6......",
"......*=&&&&&&&&=7......",
".......*;&&&&&&67.......",
".........>8__8>.........",
"........................",
"........................",
"........................",
"........................",
"........................"};
