/* XPM */
static char * close_inactive_xpm[] = {
"24 24 39 1",
" 	c None",
".	c #002B36",
"+	c #244852",
"@	c #59737B",
"#	c #58727B",
"$	c #58737B",
"%	c #E1E3E6",
"&	c #F0F1F2",
"*	c #F5F5F7",
"=	c #E8E8EB",
"-	c #C0C9CD",
";	c #F6F6F7",
">	c #F0F1F3",
",	c #778C93",
"'	c #F3F3F4",
")	c #91A1A6",
"!	c #BBBFC9",
"~	c #D2D5DB",
"{	c #D3D5DC",
"]	c #BBBEC8",
"^	c #B4BEC2",
"/	c #F1F1F3",
"(	c #D7D9DF",
"_	c #BABEC7",
":	c #D0D3D9",
"<	c #D2D4DB",
"[	c #D5D7DD",
"}	c #F4F4F7",
"|	c #CDD1D8",
"1	c #F5F5F6",
"2	c #D7DADF",
"3	c #D0D4DB",
"4	c #0E3641",
"5	c #94A3A9",
"6	c #BFC3CC",
"7	c #D9DADF",
"8	c #8D9EA5",
"9	c #EFF0F2",
"0	c #234751",
"........................",
"........................",
"........................",
"........................",
"........................",
".........+@##$+.........",
".......+#%&**&=#+.......",
"......+$-;;;;;;>$+......",
"......,-;';;;;';>#......",
".....+);;!~;;{];;^+.....",
".....@/;;(_:<_[;;>$.....",
".....#};;;(__[;;;}#.....",
".....#};;;:__|;;;1#.....",
".....@/;;~_22_3;;>$.....",
".....45;;67;;76;;^+.....",
"......#>;;;;;;;;>#......",
"......+$>;;;;;;>8+......",
".......+#%>}}9%#+.......",
".........400004.........",
"........................",
"........................",
"........................",
"........................",
"........................"};
