/* XPM */
static char * close_pressed_xpm[] = {
"24 24 55 1",
" 	c None",
".	c #002B36",
"+	c #26474F",
"@	c #61555C",
"#	c #C5555C",
"$	c #D9444C",
"%	c #D85B62",
"&	c #6B5961",
"*	c #2A4A53",
"=	c #2B424C",
"-	c #EE4850",
";	c #EF4048",
">	c #3A4B55",
",	c #EE4048",
"'	c #1F414B",
")	c #F04B53",
"!	c #F04A52",
"~	c #2F4D57",
"{	c #484952",
"]	c #FFFBFB",
"^	c #F9B4B7",
"/	c #EF4149",
"(	c #F8B1B4",
"_	c #FFFDFE",
":	c #61555E",
"<	c #C5555D",
"[	c #F7A1A5",
"}	c #FFFFFF",
"|	c #F9B7BA",
"1	c #F9B6B9",
"2	c #F8A7AA",
"3	c #C6414A",
"4	c #F7A4A8",
"5	c #F8A9AC",
"6	c #D9454D",
"7	c #C6424B",
"8	c #EF424A",
"9	c #F9B8BB",
"0	c #FABFC1",
"a	c #EF434B",
"b	c #F9B5B8",
"c	c #F7A0A4",
"d	c #61555D",
"e	c #FEEFEF",
"f	c #F79B9F",
"g	c #6B5962",
"h	c #2F4D56",
"i	c #EE4951",
"j	c #2A4A55",
"k	c #344852",
"l	c #2F464F",
"m	c #47545C",
"n	c #264751",
"o	c #58515A",
"p	c #395560",
"........................",
"........................",
"........................",
"........................",
"........................",
"........+@#$$%&*........",
".......=-;;;;;;->.......",
"......=,;;;;;;;;,>......",
".....'-;;);;;;!;;-~.....",
".....{;;;]^//(_;;;:.....",
".....<;;;[}|1}2;;;%.....",
".....3;;;;4}}5;;;;6.....",
".....7;;;89}}0a;;;6.....",
".....#;;;b}cc}1;;;%.....",
".....d;;;ef;;fe;;;g.....",
".....h-;;;;;;;;;;ij.....",
"......k,;;;;;;;;,l......",
".......k-;;;;;;im.......",
"........no%$$%op........",
"........................",
"........................",
"........................",
"........................",
"........................"};
