/* XPM */
static char * close_prelight_xpm[] = {
"24 24 45 1",
" 	c None",
".	c #002B36",
"+	c #264752",
"@	c #3C515A",
"#	c #AF868C",
"$	c #DD9499",
"%	c #C39196",
"&	c #787E85",
"*	c #F6A0A4",
"=	c #F79DA1",
"-	c #606D75",
";	c #F69DA1",
">	c #4C5F68",
",	c #F7A3A7",
"'	c #F7A2A6",
")	c #F6A1A5",
"!	c #254752",
"~	c #FFFDFD",
"{	c #FCD9DA",
"]	c #F79EA2",
"^	c #FCD7D9",
"/	c #FFFEFE",
"(	c #C29096",
"_	c #FBCFD1",
":	c #FFFFFF",
"<	c #FCDADC",
"[	c #FCDADB",
"}	c #FBD2D3",
"|	c #B2878E",
"1	c #C4888E",
"2	c #FBD0D2",
"3	c #FBD3D5",
"4	c #C7898F",
"5	c #FCDEDF",
"6	c #F79FA2",
"7	c #C78A90",
"8	c #C39096",
"9	c #FCD9DB",
"0	c #FBCED0",
"a	c #79777E",
"b	c #FEF7F7",
"c	c #FBCBCE",
"d	c #F6A1A6",
"e	c #787E86",
"f	c #C69297",
"........................",
"........................",
"........................",
"........................",
"........................",
"........+@#$$%@+........",
".......&*======*-.......",
"......-;========;>......",
".....+*==,===='==)!.....",
".....@===~{]]^/===@.....",
".....(===_:<[:}===|.....",
".....1====2::3====4.....",
".....1===]<::56===7.....",
".....8===9:00:9===|.....",
".....a===bc==cb===@.....",
".....+*==========d!.....",
"......&;========;e......",
".......&)======de.......",
"........!a%11fa!........",
"........................",
"........................",
"........................",
"........................",
"........................"};
