/* XPM */
static char * hide_prelight_xpm[] = {
"24 24 38 1",
" 	c None",
".	c #002B36",
"+	c #1B424C",
"@	c #365F75",
"#	c #42739D",
"$	c #5897E2",
"%	c #42739E",
"&	c #375F75",
"*	c #2E525C",
"=	c #264D5B",
"-	c #5D9AE2",
";	c #96BBE9",
">	c #D4E2F4",
",	c #F4F6FB",
"'	c #95BBE8",
")	c #406475",
"!	c #629EE2",
"~	c #D9E6F5",
"{	c #FCFCFD",
"]	c #D8E6F5",
"^	c #639DE2",
"/	c #4E6B76",
"(	c #5B829F",
"_	c #94BBE8",
":	c #5D829F",
"<	c #6DA3E3",
"[	c #D3E1F4",
"}	c #5997E2",
"|	c #747C90",
"1	c #5998E1",
"2	c #F1F5FA",
"3	c #5998E2",
"4	c #6EA3E2",
"5	c #5C829F",
"6	c #5E9AE2",
"7	c #416575",
"8	c #D2E1F4",
"9	c #2E515C",
"........................",
"........................",
"........................",
"........................",
"........................",
"........+@#$$%&*........",
".......=-;>,,>'-).......",
"......=!~{{{{{{]^)......",
".....+-~{{{{{{{{]-/.....",
".....(;{{{{{{{{{{_:.....",
".....<>{{{{{{{{{{[%.....",
".....},{{||||||{{,1.....",
".....1,{{||||||{{23.....",
".....4>{{{{{{{{{{[%.....",
".....5'{{{{{{{{{{_&.....",
".....*-]{{{{{{{{]6*.....",
"......)!]{{{{{{]^7......",
".......)-_[,,8_67.......",
"........9&#}}#&*........",
"........................",
"........................",
"........................",
"........................",
"........................"};
