/* XPM */
static char * hide_pressed_xpm[] = {
"24 24 19 1",
" 	c None",
".	c #002B36",
"+	c #2E525C",
"@	c #365F75",
"#	c #42739D",
"$	c #5897E2",
"%	c #42739E",
"&	c #375F75",
"*	c #6C8BA0",
"=	c #5998E1",
"-	c #5294E2",
";	c #406475",
">	c #5998E2",
",	c #2E515C",
"'	c #41739D",
")	c #5997E2",
"!	c #FFFFFF",
"~	c #5A98E2",
"{	c #416575",
"........................",
"........................",
"........................",
"........................",
"........................",
"........+@#$$%&+........",
".......*=------=;.......",
"......;----------;......",
".....+=---------->,.....",
".....@------------&.....",
".....'------------%.....",
".....)---!!!!!!---=.....",
".....=---!!!!!!--->.....",
".....#------------%.....",
".....&------------&.....",
".....+=----------~+.....",
"......;----------{......",
".......;>------~{.......",
"........,&#))#&+........",
"........................",
"........................",
"........................",
"........................",
"........................"};
