/* XPM */
static char * hide_inactive_xpm[] = {
"24 24 20 1",
" 	c None",
".	c #002B36",
"+	c #30525B",
"@	c #4F6B74",
"#	c #84969D",
"$	c #F6F6F7",
"%	c #F0F1F2",
"&	c #F5F5F7",
"*	c #E8E8EB",
"=	c #4F6B73",
"-	c #1C424C",
";	c #85979E",
">	c #E1E3E6",
",	c #F0F1F3",
"'	c #F1F1F3",
")	c #2F515B",
"!	c #F4F4F7",
"~	c #BABEC7",
"{	c #F5F5F6",
"]	c #EFF0F2",
"........................",
"........................",
"........................",
"........................",
"........................",
".........+@##@+.........",
".......+#$%&&%*=-.......",
"......+;>$$$$$$,@+......",
"......#,$$$$$$$$,=......",
".....+$$$$$$$$$$$$-.....",
".....@'$$$$$$$$$$,).....",
".....#!$$~~~~~~$$!=.....",
".....#!$$~~~~~~$${=.....",
".....@'$$$$$$$$$$,).....",
".....+*$$$$$$$$$$$-.....",
"......#,$$$$$$$$,=......",
"......+;,$$$$$$,@+......",
".......+#$,!!]$=+.......",
".........+@##@+.........",
"........................",
"........................",
"........................",
"........................",
"........................"};
