/* XPM */
static char * hide_active_xpm[] = {
"24 24 23 1",
" 	c None",
".	c #002B36",
"+	c #193F49",
"@	c #2E505A",
"#	c #567179",
"$	c #224751",
"%	c #E8E8EC",
"&	c #F5F5F6",
"*	c #FAFAFB",
"=	c #2F505A",
"-	c #F5F6F6",
";	c #FCFCFD",
">	c #577179",
",	c #123944",
"'	c #E7E8EC",
")	c #406069",
"!	c #3F5E67",
"~	c #F5F5F7",
"{	c #FAFAFC",
"]	c #A7ACB9",
"^	c #2F525B",
"/	c #758A92",
"(	c #F3F4F6",
"........................",
"........................",
"........................",
"........................",
"........................",
".........+@##@$.........",
"........@%&**&%#........",
".......=-;;;;;;->.......",
"......@-;;;;;;;;-#......",
".....,%;;;;;;;;;;').....",
".....!&;;;;;;;;;;~#.....",
".....#{;;]]]]]];;{#.....",
".....#{;;]]]]]];;{#.....",
".....@&;;;;;;;;;;~!.....",
".....+%;;;;;;;;;;'^.....",
"....../-;;;;;;;;-#......",
".......>-;;;;;;->.......",
"........#'~{{('#........",
".........+!##!$.........",
"........................",
"........................",
"........................",
"........................",
"........................"};
