/* XPM */
static char * maximize_pressed_xpm[] = {
"24 24 33 1",
" 	c None",
".	c #002B36",
"+	c #42626C",
"@	c #3E667E",
"#	c #5184B6",
"$	c #5897E2",
"%	c #5185B7",
"&	c #547B97",
"*	c #496C7E",
"=	c #5998E1",
"-	c #5294E2",
";	c #365B6B",
">	c #5998E2",
",	c #42616C",
"'	c #5596E3",
")	c #C7DDF6",
"!	c #FFFFFF",
"~	c #DDEAF9",
"{	c #3F667E",
"]	c #5997E2",
"^	c #5395E2",
"/	c #CCE0F6",
"(	c #5797E3",
"_	c #5495E2",
":	c #C3DAF5",
"<	c #DFEBFA",
"[	c #3F667D",
"}	c #5A98E2",
"|	c #638397",
"1	c #648498",
"2	c #557B97",
"3	c #5285B6",
"4	c #557B96",
"........................",
"........................",
"........................",
"........................",
"........................",
"........+@#$$%&+........",
".......*=------=;.......",
"......*----------;......",
".....+=---------->,.....",
".....&----')!!~---{.....",
".....#---'-')!!---%.....",
".....]--^/(-_:!---=.....",
".....=--^!/(-_:--->.....",
".....#--^!!)'-'---%.....",
".....&---<!!)'----[.....",
".....+=----------}+.....",
"......|----------1......",
".......|>------}1.......",
"........,23]]34+........",
"........................",
"........................",
"........................",
"........................",
"........................"};
