/* XPM */
static char * maximize_active_xpm[] = {
"24 24 24 1",
" 	c None",
".	c #002B36",
"+	c #2F525B",
"@	c #4E6A73",
"#	c #82949B",
"$	c #E8E8EC",
"%	c #F5F5F6",
"&	c #FAFAFB",
"*	c #4F6A73",
"=	c #F5F6F6",
"-	c #FCFCFD",
";	c #C2C6CE",
">	c #A7ACB9",
",	c #B7BCC7",
"'	c #E7E8EC",
")	c #F5F5F7",
"!	c #FAFAFC",
"~	c #C0C4CD",
"{	c #F9FAFB",
"]	c #FBFBFC",
"^	c #C4C8D0",
"/	c #B7BBC6",
"(	c #F3F4F6",
"_	c #1C424C",
"........................",
"........................",
"........................",
"........................",
"........................",
".........+@##@+.........",
"........@$%&&%$@........",
".......*=------=*.......",
"......@=--------=@......",
".....+$---&;>>,--'+.....",
".....@%--&-&;>>--)@.....",
".....#!--~{-]^>--!#.....",
".....#!-->~{-]^--!#.....",
".....@%-->>;&-&--)@.....",
".....+$--/>>;&---'+.....",
"......@=--------=@......",
".......*=------=*.......",
"........@')!!('@........",
"........._@##@+.........",
"........................",
"........................",
"........................",
"........................",
"........................"};
