/* XPM */
static char * maximize_inactive_xpm[] = {
"24 24 39 1",
" 	c None",
".	c #002B36",
"+	c #254953",
"@	c #43616A",
"#	c #5A747C",
"$	c #1C414B",
"%	c #798E95",
"&	c #F6F6F7",
"*	c #F5F5F7",
"=	c #F0F1F2",
"-	c #ACB7BC",
";	c #264953",
">	c #A5B1B7",
",	c #F0F1F3",
"'	c #B2BEC2",
")	c #7A8E96",
"!	c #A3B0B6",
"~	c #1B414B",
"{	c #F4F5F6",
"]	c #CCD0D7",
"^	c #BABEC7",
"/	c #C6CAD1",
"(	c #889BA0",
"_	c #F1F1F3",
":	c #31535C",
"<	c #F4F4F7",
"[	c #CBCED5",
"}	c #CED2D8",
"|	c #7A8E95",
"1	c #F5F5F6",
"2	c #5B747D",
"3	c #32545D",
"4	c #C6C9D1",
"5	c #B7C2C5",
"6	c #5D777F",
"7	c #143B45",
"8	c #EFF0F2",
"9	c #44636B",
"0	c #5A747D",
"........................",
"........................",
"........................",
"........................",
"........................",
".........+@##@+.........",
".......$%&&**=-%;.......",
"......$>,&&&&&&');......",
"......!,&&&&&&&&'@......",
".....~&&&&{]^^/&&(+.....",
".....@_&&{&{]^^&&,:.....",
".....#<&&[{&&}^&&<@.....",
".....|<&&^[{&&}&&1@.....",
".....2_&&^^]{&{&&,:.....",
".....3-&&4^^]{&&&5~.....",
"......%'&&&&&&&&,@......",
"......6>,&&&&&&,@7......",
".......6!&,<<8&@$.......",
".........90||03.........",
"........................",
"........................",
"........................",
"........................",
"........................"};
