/* XPM */
static char * maximize_prelight_xpm[] = {
"24 24 45 1",
" 	c None",
".	c #002B36",
"+	c #42626C",
"@	c #3E667E",
"#	c #3C6D95",
"$	c #5897E2",
"%	c #3C6E96",
"&	c #496C7E",
"*	c #5D9AE2",
"=	c #96BBE9",
"-	c #D4E2F4",
";	c #F4F6FB",
">	c #95BBE8",
",	c #629EE2",
"'	c #D9E6F5",
")	c #FCFCFD",
"!	c #D8E6F5",
"~	c #639DE2",
"{	c #42616C",
"]	c #547B97",
"^	c #FAFAFB",
"/	c #A1A5B4",
"(	c #747C90",
"_	c #8F96A6",
":	c #94BBE8",
"<	c #557B97",
"[	c #5184B6",
"}	c #D3E1F4",
"|	c #5185B7",
"1	c #5997E2",
"2	c #FBFBFC",
"3	c #9CA3AF",
"4	c #F9F9F9",
"5	c #A3A9B5",
"6	c #5998E1",
"7	c #F1F5FA",
"8	c #5998E2",
"9	c #8E95A5",
"0	c #557B96",
"a	c #5E9AE2",
"b	c #638397",
"c	c #648498",
"d	c #D2E1F4",
"e	c #31535E",
"f	c #5285B6",
"........................",
"........................",
"........................",
"........................",
"........................",
"........+@#$$%@+........",
".......&*=-;;->*&.......",
"......&,'))))))!~&......",
".....+*'))))))))!*{.....",
".....]=)))^/((_)):<.....",
".....[-))^)^/(())}|.....",
".....1;)234)25());6.....",
".....6;)2(34)25))78.....",
".....[-)2((/^)^))}|.....",
".....]>))9((/^))):0.....",
".....+*!))))))))!a+.....",
"......b,!))))))!~c......",
".......b*:};;d:ac.......",
"........e<f11f0+........",
"........................",
"........................",
"........................",
"........................",
"........................"};
