/* XPM */
static char * shade_inactive_xpm[] = {
"16 22 3 1",
" 	c None",
".	c #002B36",
"+	c #B9BFCE",
"................",
"................",
"................",
"................",
"................",
"................",
"................",
"................",
".......++.......",
"......++++......",
".....++++++.....",
"....++++++++....",
"................",
"....++++++++....",
"....++++++++....",
"................",
"................",
"................",
"................",
"................",
"................",
"................"};
