/* XPM */
static char * top_right_inactive_xpm[] = {
"5 24 3 1",
" 	c None",
".	c #002B36",
"+	c #002B36",
"..   ",
"++.. ",
"+++. ",
"++++.",
"+++++",
"+++++",
"+++++",
"+++++",
"+++++",
"+++++",
"+++++",
"+++++",
"+++++",
"+++++",
"+++++",
"+++++",
"+++++",
"+++++",
"+++++",
"+++++",
"+++++",
"+++++",
"+++++",
"+++++"};
